<svg width="0" height="0" fill="none" style="visibility: hidden; position: absolute;" aria-hidden="true">
    <symbol id="address" xmlns="http://www.w3.org/2000/svg" width="23" height="23" fill="none" viewBox="0 0 23 23">
        <path stroke="#CDA274" stroke-miterlimit="10" stroke-width="2"
            d="M22 11.5C22 5.701 17.299 1 11.5 1S1 5.701 1 11.5 5.701 22 11.5 22 22 17.299 22 11.5Z" />
        <path fill="#CDA274"
            d="M21.448 7.331c-.813.005-.733 1.513-1.745.802-.377-.264-.608-.647-1.08-.764-.412-.102-.835.004-1.242.075-.463.08-1.012.117-1.363.47-.34.339-.519.794-.88 1.136-.699.661-.994 1.383-.541 2.319.435.899 1.345 1.387 2.327 1.323.965-.065 1.967-.628 1.94.783-.011.498.093.844.245 1.308.141.427.131.842.164 1.283.06.824.21 1.748.617 2.477l.76-1.077c.093-.134.289-.32.335-.478.082-.278-.08-.756-.099-1.068-.018-.312-.01-.628-.057-.94-.067-.437-.324-.847-.359-1.28-.065-.804.08-1.446-.535-2.119-.595-.649-1.467-.804-2.3-.672-.42.066-2.111.337-1.433-.628.134-.19.369-.345.52-.526.13-.157.244-.446.398-.57.154-.122.86-.263 1.063-.2.202.063.413.356.588.486.325.246.703.41 1.104.477.691.102 2.136-.303 2.125-1.194-.002-.428-.397-1.023-.552-1.423Zm-8 7.336c-.27-1.142-1.813-1.523-2.645-2.143-.478-.356-.903-.906-1.531-.95-.29-.022-.532.042-.819-.033-.263-.069-.47-.211-.75-.174-.523.07-.853.632-1.416.556-.534-.072-1.084-.7-1.205-1.212-.156-.657.361-.87.915-.93.231-.024.49-.05.713.035.292.11.43.397.693.543.492.271.592-.162.517-.602-.113-.659-.245-.927.34-1.38.404-.313.75-.539.685-1.1-.038-.33-.218-.479-.05-.807.127-.25.475-.475.702-.624.587-.385 2.512-.357 1.726-1.434-.232-.316-.658-.88-1.063-.958-.506-.096-.73.472-1.083.722-.364.26-1.074.553-1.439.153-.49-.539.326-.716.506-1.092.181-.376-.418-1.087-.739-1.267l-1.508 1.7a2.125 2.125 0 0 0 .422 1.621c.3.389.778.513.8 1.044.02.508-.058.769-.39 1.127-.142.152-.244.37-.39.512-.178.175-.112.121-.39.17-.525.088-.97.226-1.477.366-.844.235-.922-1.152-1.307-1.696L2.001 7.842c-.014.169.207.479.267.662.346 1.047 1.043 1.857 1.493 2.858.474 1.06 1.747.766 2.31 1.696.498.824-.034 1.868.339 2.731.271.626.91.763 1.352 1.221.45.463.44 1.096.51 1.698a15.4 15.4 0 0 0 .377 2.1c.06.24.117.555.28.752.11.135.493.252.338.297.216.035.6.238.78.09.236-.196.173-.798.214-1.07.123-.809.526-1.6 1.07-2.206.536-.597 1.272-1.002 1.725-1.679.442-.66.575-1.552.392-2.325Zm-1.69 1.34c-.303.545-.98.91-1.414 1.343-.118.117-.369.524-.516.436-.106-.063-.142-.59-.181-.712a3.112 3.112 0 0 0-1.099-1.524c-.158-.12-.55-.278-.641-.443-.101-.18-.01-.603-.007-.799.006-.285-.123-.759-.053-1.018.08-.298-.075-.118.19-.177.14-.032.72.07.894.107.277.058.43.232.649.407.574.464 1.207.822 1.851 1.178.5.278.646.63.327 1.202ZM8.237 1.985c.24.236.465.514.823.538.338.023.658-.161.953.07.328.255.564.577 1 .656.42.077.866-.17.97-.603.101-.413-.117-.862-.13-1.276 0-.058.031-.313-.008-.357-.03-.032-.275.005-.312.006a10.429 10.429 0 0 0-3.714.803c.123.085.278.119.418.163Zm8.699 2.859c.43 0 .866-.193.727-.693-.116-.419-.315-.873-.797-.647-.308.143-.743.508-.779.87-.04.412.563.47.849.47Zm-.343 2.187c.439.264 1.09.14 1.42-.237.259-.296.41-.808.876-.808.205 0 .401.08.547.225.193.2.155.388.196.638.091.562.69.032.847-.186.101-.142.238-.352.192-.537-.042-.173-.242-.356-.332-.515-.26-.458-.474-.99-.863-1.36-.375-.357-.836-.315-1.192.055-.291.305-.63.547-.829.918-.14.261-.299.386-.584.454-.157.037-.336.05-.467.156-.367.29-.158.987.189 1.197Z" />
    </symbol>
    <symbol id="arrow" xmlns="http://www.w3.org/2000/svg" viewBox="0 0 18 17">
        <path stroke-linecap="square" stroke-linejoin="round" stroke-width="2"
            d="M1 8.435 14.723 8.3M9.618 1.91l6.523 6.523-6.654 6.655" />
    </symbol>
    <symbol id="bigCommerce" xmlns="http://www.w3.org/2000/svg" fill="none" viewBox="0 0 365 100">
        <path fill="#000"
            d="M132.384 49.21c3.374 0 5.639 1.525 7.025 3.42V25.638c0-.508-.601-.832-1.017-.508l-33.324 24.357h.879c3.466 0 5.222 2.219 5.222 4.622 0 1.895-.97 3.282-2.311 3.882a.273.273 0 0 0 0 .509c1.526.647 2.635 2.265 2.635 4.206 0 2.773-1.803 4.945-5.269 4.945h-9.475a.365.365 0 0 1-.37-.37V55.82L71.56 73.983c-.416.37-.231 1.017.324 1.017h66.924a.534.534 0 0 0 .555-.555v-9.197c-1.803 1.664-4.16 2.727-7.025 2.727-5.362 0-9.706-3.698-9.706-9.383.046-5.73 4.437-9.382 9.752-9.382Zm-13.265 18.118a.316.316 0 0 1-.324.323h-3.189a.315.315 0 0 1-.323-.323V49.81c0-.185.138-.324.323-.324h3.189c.185 0 .324.139.324.324v17.517Z" />
        <path fill="#000"
            d="M100.631 56.697h4.484c1.294 0 2.126-.74 2.126-1.895 0-1.11-.832-1.895-2.126-1.895h-4.668a.198.198 0 0 0-.185.185v3.282c0 .184.185.323.369.323Zm0 7.58h4.669c1.432 0 2.31-.786 2.31-2.08 0-1.155-.831-2.08-2.31-2.08h-4.669a.364.364 0 0 0-.369.37v3.42c0 .185.185.37.369.37Zm35.867-9.567c-.878-1.156-2.357-2.08-4.113-2.08-3.328 0-5.731 2.542-5.731 5.962s2.403 5.963 5.731 5.963c1.525 0 2.958-.648 3.744-1.295a.354.354 0 0 0 .092-.23v-1.757a.298.298 0 0 0-.277-.277h-4.114a.365.365 0 0 1-.37-.37v-2.588c0-.231.185-.37.37-.37h7.626v-4.114l-2.449 1.34a.514.514 0 0 1-.509-.184Zm5.778 3.882c0-5.592 4.021-9.382 9.197-9.382 3.374 0 5.547 1.71 6.841 3.79.092.139.046.37-.139.416l-2.08 1.11c-.138.092-.323.045-.37-.093-.878-1.387-2.495-2.404-4.252-2.404-3.466 0-6.054 2.727-6.054 6.563 0 3.79 2.588 6.564 6.054 6.564 1.757 0 3.374-1.017 4.252-2.404.093-.139.232-.185.37-.092l2.08 1.063c.185.092.231.277.139.462-1.341 2.08-3.513 3.836-6.841 3.836-5.176-.046-9.197-3.882-9.197-9.429Zm17.839 0c0-4.53 2.589-8.042 6.471-9.059 6.609-1.756 12.664 4.437 11.231 11.324-.878 4.252-4.252 7.164-8.735 7.164-5.269-.046-8.967-4.021-8.967-9.429Zm14.744 0c0-3.743-2.311-6.563-5.823-6.563-3.559 0-5.824 2.82-5.824 6.563 0 3.744 2.265 6.563 5.824 6.563 3.558 0 5.823-2.865 5.823-6.563Zm22 8.828V53.6l-5.5 13.913c0 .046-.092.092-.138.092h-1.156c-.046 0-.139-.046-.139-.093l-5.546-13.911v13.82c0 .138-.092.23-.231.23h-2.773c-.139 0-.231-.092-.231-.23v-17.75c0-.139.092-.231.231-.231h3.975c.185 0 .323.092.416.277l4.853 12.48 4.807-12.48c.046-.185.231-.277.416-.277h3.974c.139 0 .231.092.231.231V67.42c0 .139-.092.231-.231.231h-2.773c-.046 0-.185-.092-.185-.23Zm31.429-.092V49.81c0-.185.139-.324.324-.324h11.786c.185 0 .323.139.323.324v2.126a.315.315 0 0 1-.323.323h-8.597a.316.316 0 0 0-.324.324v4.02c0 .186.139.324.324.324h8.412c.185 0 .323.139.323.324v2.126a.315.315 0 0 1-.323.324h-8.412a.316.316 0 0 0-.324.323v4.39c0 .186.139.324.324.324h8.597c.185 0 .323.14.323.324v2.126a.315.315 0 0 1-.323.324h-11.786c-.185.138-.324 0-.324-.185Zm27.223.138-3.836-6.47c-.046-.093-.185-.139-.277-.139h-2.681a.315.315 0 0 0-.323.324v6.147a.316.316 0 0 1-.324.323h-2.496a.315.315 0 0 1-.323-.323V49.81c0-.185.138-.324.323-.324h7.673c3.605 0 5.962 2.311 5.962 5.685 0 3.004-1.849 4.714-3.883 5.223-.231.046-.323.277-.231.508.74 1.202 3.051 4.9 3.929 6.24.139.23 0 .508-.277.508h-2.912c-.139 0-.231-.046-.324-.185Zm.416-12.34c0-1.756-1.294-2.866-3.096-2.866h-4.068a.315.315 0 0 0-.323.324v5.13c0 .185.138.324.323.324h4.068c1.802 0 3.096-1.11 3.096-2.912Zm24.82 12.202V49.81c0-.185.138-.324.323-.324h11.832c.185 0 .324.139.324.324v2.172a.316.316 0 0 1-.324.324h-8.643a.316.316 0 0 0-.323.323v4.067c0 .185.139.324.323.324h8.412c.185 0 .324.139.324.323v2.173a.316.316 0 0 1-.324.323h-8.412a.316.316 0 0 0-.323.324V64.6c0 .185.139.323.323.323h8.643c.185 0 .324.139.324.324v2.172a.316.316 0 0 1-.324.324H281.07c-.185-.093-.323-.231-.323-.416ZM261.521 58.5c0-5.593 4.021-9.383 9.197-9.383 3.374 0 5.547 1.71 6.841 3.79.092.139.046.37-.139.416l-2.08 1.11c-.138.092-.323.046-.37-.093-.878-1.387-2.495-2.403-4.252-2.403-3.466 0-6.054 2.727-6.054 6.563 0 3.79 2.588 6.563 6.054 6.563 1.757 0 3.374-1.017 4.252-2.404.093-.138.232-.184.37-.092l2.08 1.063c.185.093.231.277.139.462-1.341 2.08-3.513 3.837-6.841 3.837-5.176-.047-9.197-3.837-9.197-9.43Zm-41.09 8.92V53.6l-5.5 13.913c0 .046-.092.092-.139.092h-1.155c-.046 0-.139-.046-.139-.093l-5.546-13.911v13.82c0 .138-.092.23-.231.23h-2.773c-.139 0-.231-.092-.231-.23v-17.75c0-.139.092-.231.231-.231h3.975c.184 0 .323.092.416.277l4.853 12.48 4.806-12.48c.047-.185.231-.277.416-.277h3.975c.139 0 .231.092.231.231V67.42c0 .139-.092.231-.231.231h-2.773c-.092 0-.185-.092-.185-.23Z" />
    </symbol>
    <symbol id="buffer" xmlns="http://www.w3.org/2000/svg" fill="none" viewBox="0 0 300 100">
        <path fill="#000" fill-rule="evenodd"
            d="M49 36.405 70.968 25l22.204 11.405-22.204 11.434L49 36.405Zm131.879 5.538v-.275c0-3.753 2.208-4.957 5.926-4.69v-6.863c-8.908-.542-13.13 3.92-13.13 11.553v.275h-4.028v6.863h4.028V69.58h7.204V48.806h8.289V69.58h7.204V48.806h5.926v-6.863h-5.926v-.275c0-3.753 2.169-4.957 5.926-4.69v-6.863c-8.908-.542-13.13 3.92-13.13 11.553v.275h-8.289Zm-50.352 7.515c2.284-1.817 3.678-4.414 3.678-7.75 0-6.47-5.267-10.891-11.89-10.891h-15.378V69.5h16.617c6.778 0 12.201-4.571 12.201-11.196-.077-4-2.092-7.06-5.228-8.847Zm-8.174-11.473c2.479 0 4.184 1.825 4.184 4.265 0 2.448-1.783 4.265-4.184 4.265h-7.707v-8.53h7.707Zm1.162 24.427h-8.869v-9.114h8.869c2.635 0 4.532 1.935 4.532 4.532 0 2.637-1.897 4.582-4.532 4.582Zm34.705-20.508v14.92c0 4.808-2.633 6.862-6.158 6.862-3.254 0-5.539-1.935-5.539-5.698V41.904h-7.205v16.973c0 7.366 4.61 11.444 10.575 11.444 3.757 0 6.661-1.402 8.289-3.88v3.1h7.203V41.904h-7.165Zm73.941 16.745h-21.07c1.046 3.645 4.066 5.195 7.824 5.195 2.827 0 5.074-1.166 6.275-2.755l5.81 3.298c-2.595 3.76-6.779 5.934-12.163 5.934-9.373 0-15.299-6.359-15.299-14.613 0-8.264 5.965-14.624 14.757-14.624 8.251 0 14.138 6.478 14.138 14.624 0 1.076-.116 2.014-.272 2.941Zm-13.866-11.087c-3.872 0-6.508 2.054-7.321 5.578h14.254c-.891-3.988-3.912-5.578-6.933-5.578Zm24.557-.89v-4.768h-7.204V69.54h7.204V56.32c0-5.817 4.726-7.475 8.482-7.012v-7.947c-3.524 0-7.049 1.55-8.482 5.31ZM70.968 67.399 55.98 59.253 49 63.034l21.968 11.928 22.204-11.928-7.06-3.781-15.144 8.145ZM55.98 46.407l14.987 7.385 15.144-7.385 7.06 3.446-22.204 10.831L49 49.853l6.98-3.446Z"
            clip-rule="evenodd" />
    </symbol>
    <symbol id="Call" xmlns="http://www.w3.org/2000/svg" viewBox="0 0 34 34">
        <path fill-opacity=".92" stroke-miterlimit="10" stroke-width="2"
            d="M32.001 26.075c-1.221-1.23-4.18-3.027-5.615-3.75-1.87-.942-2.023-1.02-3.493.072-.98.729-1.631 1.38-2.778 1.135-1.147-.245-3.64-1.624-5.822-3.8-2.182-2.174-3.642-4.739-3.887-5.882-.245-1.143.416-1.787 1.138-2.769 1.017-1.385.94-1.615.07-3.484-.677-1.454-2.526-4.385-3.761-5.6C6.53.69 6.53.922 5.68 1.276a12.32 12.32 0 0 0-1.987 1.06C2.462 3.152 1.779 3.831 1.3 4.852.824 5.873.61 8.266 3.076 12.748c2.467 4.481 4.198 6.773 7.78 10.345 3.582 3.572 6.337 5.493 10.364 7.751 4.982 2.79 6.893 2.246 7.917 1.77 1.023-.478 1.706-1.155 2.525-2.385.414-.628.77-1.292 1.062-1.985.354-.848.585-.848-.723-2.17Z" />
    </symbol>
    <symbol id="Frame" xmlns="http://www.w3.org/2000/svg" fill="none" viewBox="0 0 90 90">
        <path fill="#000" fill-rule="evenodd"
            d="M4.986 49.065 48.905 5.146v21.495A22.424 22.424 0 0 1 26.48 49.065H4.986Zm79.894-7.942L40.96 85.042V63.547a22.424 22.424 0 0 1 22.425-22.424h21.494Z"
            clip-rule="evenodd" />
    </symbol>
    <symbol id="logo" xmlns="http://www.w3.org/2000/svg" width="50" height="50" fill="none" viewBox="0 0 50 50">
        <path fill="#CDA274"
            d="M10.417 41.667v-19.05L6.385 25.72 5.13 24.07 25 8.854l19.87 15.217-1.255 1.637-4.032-3.091v19.05H10.417Zm6.25-10.896c-.43 0-.806-.16-1.125-.48a1.54 1.54 0 0 1-.48-1.124c0-.43.16-.806.48-1.125.32-.32.694-.48 1.125-.48.43 0 .805.16 1.125.48.32.32.479.694.479 1.125 0 .43-.16.805-.48 1.125-.319.32-.694.479-1.124.479Zm8.333 0c-.43 0-.806-.16-1.125-.48a1.54 1.54 0 0 1-.48-1.124c0-.43.16-.806.48-1.125.32-.32.694-.48 1.125-.48.43 0 .806.16 1.125.48.32.32.48.694.48 1.125 0 .43-.16.805-.48 1.125-.32.32-.694.479-1.125.479Zm8.333 0c-.43 0-.805-.16-1.125-.48a1.54 1.54 0 0 1-.479-1.124c0-.43.16-.806.48-1.125.319-.32.694-.48 1.124-.48.43 0 .806.16 1.125.48.32.32.48.694.48 1.125 0 .43-.16.805-.48 1.125-.32.32-.694.479-1.125.479Z" />
    </symbol>
    <symbol id="mail" xmlns="http://www.w3.org/2000/svg" viewBox="0 0 24 19">
        <path stroke="#CDA274" stroke-linecap="round" stroke-linejoin="round" stroke-width="2"
            d="m4 4 8 7 8-7M3.115 1h17.77A2.12 2.12 0 0 1 23 3.125v12.75A2.12 2.12 0 0 1 20.885 18H3.115A2.12 2.12 0 0 1 1 15.875V3.125A2.12 2.12 0 0 1 3.115 1Z" />
    </symbol>
    <symbol id="search" xmlns="http://www.w3.org/2000/svg" viewBox="0 0 27 27">
        <path
            d="m26.588 24.29-6.105-6.12a11.326 11.326 0 0 0 2.26-6.804C22.743 5.099 17.657 0 11.406 0 5.154 0 .068 5.099.068 11.366c0 6.267 5.086 11.366 11.338 11.366a11.26 11.26 0 0 0 6.786-2.267l6.105 6.121A1.62 1.62 0 0 0 27 25.42a1.63 1.63 0 0 0-.412-1.13ZM3.308 11.366c0-1.606.475-3.175 1.364-4.51a8.103 8.103 0 0 1 3.635-2.99 8.08 8.08 0 0 1 8.825 1.76 8.137 8.137 0 0 1 1.755 8.847 8.114 8.114 0 0 1-2.982 3.643 8.084 8.084 0 0 1-4.5 1.368 8.098 8.098 0 0 1-5.723-2.38 8.138 8.138 0 0 1-2.374-5.738Z" />
    </symbol>
    <symbol id="smallArrow" xmlns="http://www.w3.org/2000/svg" viewBox="0 0 10 20">
        <path d="m1 19 8-9-8-9" />
        <path stroke-linecap="round" stroke-linejoin="round" stroke-width="2" d="m1 19 8-9-8-9" />
    </symbol>
    <symbol id="uon" xmlns="http://www.w3.org/2000/svg" fill="none" viewBox="0 0 363 100">
        <path fill="#000" fill-rule="evenodd"
            d="M245.667 20h-30v60h28V27a2 2 0 0 1 4 0v53h28V50c0-16.569-13.432-30-30-30Zm-64 60c16.568 0 30-13.431 30-30 0-16.569-13.432-30-30-30-16.568 0-30 13.431-30 30 0 16.569 13.432 30 30 30Zm0-55a2 2 0 0 0-2 2v46a2 2 0 0 0 4 0V27a2 2 0 0 0-2-2Zm-34-4.934c-15.636 1.029-28 14.038-28 29.934v30h28V20.066Zm-32 0v59.869c-15.636-1.03-28-14.038-28-29.935 0-15.896 12.364-28.905 28-29.934Z"
            clip-rule="evenodd" />
    </symbol>
    <symbol id="fb" viewBox="0 0 10 19" fill="none" xmlns="http://www.w3.org/2000/svg">
        <path
            d="M9.18359 10.875L9.67578 7.64062H6.54688V5.53125C6.54688 4.61719 6.96875 3.77344 8.375 3.77344H9.81641V0.996094C9.81641 0.996094 8.51562 0.75 7.28516 0.75C4.71875 0.75 3.03125 2.33203 3.03125 5.14453V7.64062H0.148438V10.875H3.03125V18.75H6.54688V10.875H9.18359Z"
            fill="#292F36" />
    </symbol>
    <symbol id="twitter" viewBox="0 0 18 16" fill="none" xmlns="http://www.w3.org/2000/svg">
        <path
            d="M16.1367 4.09375C16.1367 4.26953 16.1367 4.41016 16.1367 4.58594C16.1367 9.47266 12.4453 15.0625 5.66016 15.0625C3.55078 15.0625 1.61719 14.4648 0 13.4102C0.28125 13.4453 0.5625 13.4805 0.878906 13.4805C2.60156 13.4805 4.18359 12.8828 5.44922 11.8984C3.83203 11.8633 2.46094 10.8086 2.00391 9.33203C2.25 9.36719 2.46094 9.40234 2.70703 9.40234C3.02344 9.40234 3.375 9.33203 3.65625 9.26172C1.96875 8.91016 0.703125 7.43359 0.703125 5.64062V5.60547C1.19531 5.88672 1.79297 6.02734 2.39062 6.0625C1.37109 5.39453 0.738281 4.26953 0.738281 3.00391C0.738281 2.30078 0.914062 1.66797 1.23047 1.14062C3.05859 3.35547 5.80078 4.83203 8.85938 5.00781C8.78906 4.72656 8.75391 4.44531 8.75391 4.16406C8.75391 2.125 10.4062 0.472656 12.4453 0.472656C13.5 0.472656 14.4492 0.894531 15.1523 1.63281C15.9609 1.45703 16.7695 1.14062 17.4727 0.71875C17.1914 1.59766 16.6289 2.30078 15.8555 2.75781C16.5938 2.6875 17.332 2.47656 17.9648 2.19531C17.4727 2.93359 16.8398 3.56641 16.1367 4.09375Z"
            fill="#292F36" />
    </symbol>
    <symbol id="in" viewBox="0 0 16 17" fill="none" xmlns="http://www.w3.org/2000/svg">
        <path
            d="M3.64062 16.5H0.371094V5.98828H3.64062V16.5ZM1.98828 4.58203C0.96875 4.58203 0.125 3.70312 0.125 2.64844C0.125 1.62891 0.96875 0.785156 1.98828 0.785156C3.04297 0.785156 3.88672 1.62891 3.88672 2.64844C3.88672 3.70312 3.04297 4.58203 1.98828 4.58203ZM15.8398 16.5H12.6055V11.4023C12.6055 10.1719 12.5703 8.625 10.8828 8.625C9.19531 8.625 8.94922 9.92578 8.94922 11.2969V16.5H5.67969V5.98828H8.80859V7.42969H8.84375C9.30078 6.62109 10.3555 5.74219 11.9375 5.74219C15.2422 5.74219 15.875 7.92188 15.875 10.7344V16.5H15.8398Z"
            fill="#292F36" />
    </symbol>
    <symbol id="instagram" viewBox="0 0 17 18" fill="none" xmlns="http://www.w3.org/2000/svg">
        <path
            d="M8.5 4.60742C10.8379 4.60742 12.7676 6.53711 12.7676 8.875C12.7676 11.25 10.8379 13.1426 8.5 13.1426C6.125 13.1426 4.23242 11.25 4.23242 8.875C4.23242 6.53711 6.125 4.60742 8.5 4.60742ZM8.5 11.6582C10.0215 11.6582 11.2461 10.4336 11.2461 8.875C11.2461 7.35352 10.0215 6.12891 8.5 6.12891C6.94141 6.12891 5.7168 7.35352 5.7168 8.875C5.7168 10.4336 6.97852 11.6582 8.5 11.6582ZM13.918 4.45898C13.918 5.01562 13.4727 5.46094 12.916 5.46094C12.3594 5.46094 11.9141 5.01562 11.9141 4.45898C11.9141 3.90234 12.3594 3.45703 12.916 3.45703C13.4727 3.45703 13.918 3.90234 13.918 4.45898ZM16.7383 5.46094C16.8125 6.83398 16.8125 10.9531 16.7383 12.3262C16.6641 13.6621 16.3672 14.8125 15.4023 15.8145C14.4375 16.7793 13.25 17.0762 11.9141 17.1504C10.541 17.2246 6.42188 17.2246 5.04883 17.1504C3.71289 17.0762 2.5625 16.7793 1.56055 15.8145C0.595703 14.8125 0.298828 13.6621 0.224609 12.3262C0.150391 10.9531 0.150391 6.83398 0.224609 5.46094C0.298828 4.125 0.595703 2.9375 1.56055 1.97266C2.5625 1.00781 3.71289 0.710938 5.04883 0.636719C6.42188 0.5625 10.541 0.5625 11.9141 0.636719C13.25 0.710938 14.4375 1.00781 15.4023 1.97266C16.3672 2.9375 16.6641 4.125 16.7383 5.46094ZM14.957 13.7734C15.4023 12.6973 15.291 10.0996 15.291 8.875C15.291 7.6875 15.4023 5.08984 14.957 3.97656C14.6602 3.27148 14.1035 2.67773 13.3984 2.41797C12.2852 1.97266 9.6875 2.08398 8.5 2.08398C7.27539 2.08398 4.67773 1.97266 3.60156 2.41797C2.85938 2.71484 2.30273 3.27148 2.00586 3.97656C1.56055 5.08984 1.67188 7.6875 1.67188 8.875C1.67188 10.0996 1.56055 12.6973 2.00586 13.7734C2.30273 14.5156 2.85938 15.0723 3.60156 15.3691C4.67773 15.8145 7.27539 15.7031 8.5 15.7031C9.6875 15.7031 12.2852 15.8145 13.3984 15.3691C14.1035 15.0723 14.6973 14.5156 14.957 13.7734Z"
            fill="#292F36" />
    </symbol>
    <symbol id="play" viewBox="0 0 172 172" xmlns="http://www.w3.org/2000/svg">
        <g filter="url(#filter0_d_31_32)">
            <circle cx="86" cy="76" r="66" fill="white" />
            <path
                d="M82.941 91.4289L99.1666 77.7781C99.428 77.558 99.6378 77.2851 99.7817 76.9779C99.9255 76.6708 100 76.3368 100 75.9987C100 75.6607 99.9255 75.3266 99.7817 75.0195C99.6378 74.7123 99.428 74.4394 99.1666 74.2194L82.941 60.5686C81.3923 59.2658 79 60.3459 79 62.3479V89.6534C79 91.6554 81.3923 92.7355 82.941 91.4289Z"
                fill="#CDA274" />
        </g>
        <defs>
            <filter id="filter0_d_31_32" x="0" y="0" width="172" height="172" filterUnits="userSpaceOnUse"
                color-interpolation-filters="sRGB">
                <feFlood flood-opacity="0" result="BackgroundImageFix" />
                <feColorMatrix in="SourceAlpha" type="matrix" values="0 0 0 0 0 0 0 0 0 0 0 0 0 0 0 0 0 0 127 0"
                    result="hardAlpha" />
                <feOffset dy="10" />
                <feGaussianBlur stdDeviation="10" />
                <feComposite in2="hardAlpha" operator="out" />
                <feColorMatrix type="matrix" values="0 0 0 0 0.752941 0 0 0 0 0.752941 0 0 0 0 0.752941 0 0 0 0.25 0" />
                <feBlend mode="normal" in2="BackgroundImageFix" result="effect1_dropShadow_31_32" />
                <feBlend mode="normal" in="SourceGraphic" in2="effect1_dropShadow_31_32" result="shape" />
            </filter>
        </defs>
    </symbol>
</svg>