<svg xmlns="http://www.w3.org/2000/svg" width="23" height="23" fill="none" viewBox="0 0 23 23">
  <path stroke="#CDA274" stroke-miterlimit="10" stroke-width="2" d="M22 11.5C22 5.701 17.299 1 11.5 1S1 5.701 1 11.5 5.701 22 11.5 22 22 17.299 22 11.5Z"/>
  <path fill="#CDA274" d="M21.448 7.331c-.813.005-.733 1.513-1.745.802-.377-.264-.608-.647-1.08-.764-.412-.102-.835.004-1.242.075-.463.08-1.012.117-1.363.47-.34.339-.519.794-.88 1.136-.699.661-.994 1.383-.541 2.319.435.899 1.345 1.387 2.327 1.323.965-.065 1.967-.628 1.94.783-.011.498.093.844.245 1.308.141.427.131.842.164 1.283.06.824.21 1.748.617 2.477l.76-1.077c.093-.134.289-.32.335-.478.082-.278-.08-.756-.099-1.068-.018-.312-.01-.628-.057-.94-.067-.437-.324-.847-.359-1.28-.065-.804.08-1.446-.535-2.119-.595-.649-1.467-.804-2.3-.672-.42.066-2.111.337-1.433-.628.134-.19.369-.345.52-.526.13-.157.244-.446.398-.57.154-.122.86-.263 1.063-.2.202.063.413.356.588.486.325.246.703.41 1.104.477.691.102 2.136-.303 2.125-1.194-.002-.428-.397-1.023-.552-1.423Zm-8 7.336c-.27-1.142-1.813-1.523-2.645-2.143-.478-.356-.903-.906-1.531-.95-.29-.022-.532.042-.819-.033-.263-.069-.47-.211-.75-.174-.523.07-.853.632-1.416.556-.534-.072-1.084-.7-1.205-1.212-.156-.657.361-.87.915-.93.231-.024.49-.05.713.035.292.11.43.397.693.543.492.271.592-.162.517-.602-.113-.659-.245-.927.34-1.38.404-.313.75-.539.685-1.1-.038-.33-.218-.479-.05-.807.127-.25.475-.475.702-.624.587-.385 2.512-.357 1.726-1.434-.232-.316-.658-.88-1.063-.958-.506-.096-.73.472-1.083.722-.364.26-1.074.553-1.439.153-.49-.539.326-.716.506-1.092.181-.376-.418-1.087-.739-1.267l-1.508 1.7a2.125 2.125 0 0 0 .422 1.621c.3.389.778.513.8 1.044.02.508-.058.769-.39 1.127-.142.152-.244.37-.39.512-.178.175-.112.121-.39.17-.525.088-.97.226-1.477.366-.844.235-.922-1.152-1.307-1.696L2.001 7.842c-.014.169.207.479.267.662.346 1.047 1.043 1.857 1.493 2.858.474 1.06 1.747.766 2.31 1.696.498.824-.034 1.868.339 2.731.271.626.91.763 1.352 1.221.45.463.44 1.096.51 1.698a15.4 15.4 0 0 0 .377 2.1c.06.24.117.555.28.752.11.135.493.252.338.297.216.035.6.238.78.09.236-.196.173-.798.214-1.07.123-.809.526-1.6 1.07-2.206.536-.597 1.272-1.002 1.725-1.679.442-.66.575-1.552.392-2.325Zm-1.69 1.34c-.303.545-.98.91-1.414 1.343-.118.117-.369.524-.516.436-.106-.063-.142-.59-.181-.712a3.112 3.112 0 0 0-1.099-1.524c-.158-.12-.55-.278-.641-.443-.101-.18-.01-.603-.007-.799.006-.285-.123-.759-.053-1.018.08-.298-.075-.118.19-.177.14-.032.72.07.894.107.277.058.43.232.649.407.574.464 1.207.822 1.851 1.178.5.278.646.63.327 1.202ZM8.237 1.985c.24.236.465.514.823.538.338.023.658-.161.953.07.328.255.564.577 1 .656.42.077.866-.17.97-.603.101-.413-.117-.862-.13-1.276 0-.058.031-.313-.008-.357-.03-.032-.275.005-.312.006a10.429 10.429 0 0 0-3.714.803c.123.085.278.119.418.163Zm8.699 2.859c.43 0 .866-.193.727-.693-.116-.419-.315-.873-.797-.647-.308.143-.743.508-.779.87-.04.412.563.47.849.47Zm-.343 2.187c.439.264 1.09.14 1.42-.237.259-.296.41-.808.876-.808.205 0 .401.08.547.225.193.2.155.388.196.638.091.562.69.032.847-.186.101-.142.238-.352.192-.537-.042-.173-.242-.356-.332-.515-.26-.458-.474-.99-.863-1.36-.375-.357-.836-.315-1.192.055-.291.305-.63.547-.829.918-.14.261-.299.386-.584.454-.157.037-.336.05-.467.156-.367.29-.158.987.189 1.197Z"/>
</svg>
