<svg xmlns="http://www.w3.org/2000/svg" width="365" height="100" fill="none" viewBox="0 0 365 100">
  <path fill="#000" d="M132.384 49.21c3.374 0 5.639 1.525 7.025 3.42V25.638c0-.508-.601-.832-1.017-.508l-33.324 24.357h.879c3.466 0 5.222 2.219 5.222 4.622 0 1.895-.97 3.282-2.311 3.882a.273.273 0 0 0 0 .509c1.526.647 2.635 2.265 2.635 4.206 0 2.773-1.803 4.945-5.269 4.945h-9.475a.365.365 0 0 1-.37-.37V55.82L71.56 73.983c-.416.37-.231 1.017.324 1.017h66.924a.534.534 0 0 0 .555-.555v-9.197c-1.803 1.664-4.16 2.727-7.025 2.727-5.362 0-9.706-3.698-9.706-9.383.046-5.73 4.437-9.382 9.752-9.382Zm-13.265 18.118a.316.316 0 0 1-.324.323h-3.189a.315.315 0 0 1-.323-.323V49.81c0-.185.138-.324.323-.324h3.189c.185 0 .324.139.324.324v17.517Z"/>
  <path fill="#000" d="M100.631 56.697h4.484c1.294 0 2.126-.74 2.126-1.895 0-1.11-.832-1.895-2.126-1.895h-4.668a.198.198 0 0 0-.185.185v3.282c0 .184.185.323.369.323Zm0 7.58h4.669c1.432 0 2.31-.786 2.31-2.08 0-1.155-.831-2.08-2.31-2.08h-4.669a.364.364 0 0 0-.369.37v3.42c0 .185.185.37.369.37Zm35.867-9.567c-.878-1.156-2.357-2.08-4.113-2.08-3.328 0-5.731 2.542-5.731 5.962s2.403 5.963 5.731 5.963c1.525 0 2.958-.648 3.744-1.295a.354.354 0 0 0 .092-.23v-1.757a.298.298 0 0 0-.277-.277h-4.114a.365.365 0 0 1-.37-.37v-2.588c0-.231.185-.37.37-.37h7.626v-4.114l-2.449 1.34a.514.514 0 0 1-.509-.184Zm5.778 3.882c0-5.592 4.021-9.382 9.197-9.382 3.374 0 5.547 1.71 6.841 3.79.092.139.046.37-.139.416l-2.08 1.11c-.138.092-.323.045-.37-.093-.878-1.387-2.495-2.404-4.252-2.404-3.466 0-6.054 2.727-6.054 6.563 0 3.79 2.588 6.564 6.054 6.564 1.757 0 3.374-1.017 4.252-2.404.093-.139.232-.185.37-.092l2.08 1.063c.185.092.231.277.139.462-1.341 2.08-3.513 3.836-6.841 3.836-5.176-.046-9.197-3.882-9.197-9.429Zm17.839 0c0-4.53 2.589-8.042 6.471-9.059 6.609-1.756 12.664 4.437 11.231 11.324-.878 4.252-4.252 7.164-8.735 7.164-5.269-.046-8.967-4.021-8.967-9.429Zm14.744 0c0-3.743-2.311-6.563-5.823-6.563-3.559 0-5.824 2.82-5.824 6.563 0 3.744 2.265 6.563 5.824 6.563 3.558 0 5.823-2.865 5.823-6.563Zm22 8.828V53.6l-5.5 13.913c0 .046-.092.092-.138.092h-1.156c-.046 0-.139-.046-.139-.093l-5.546-13.911v13.82c0 .138-.092.23-.231.23h-2.773c-.139 0-.231-.092-.231-.23v-17.75c0-.139.092-.231.231-.231h3.975c.185 0 .323.092.416.277l4.853 12.48 4.807-12.48c.046-.185.231-.277.416-.277h3.974c.139 0 .231.092.231.231V67.42c0 .139-.092.231-.231.231h-2.773c-.046 0-.185-.092-.185-.23Zm31.429-.092V49.81c0-.185.139-.324.324-.324h11.786c.185 0 .323.139.323.324v2.126a.315.315 0 0 1-.323.323h-8.597a.316.316 0 0 0-.324.324v4.02c0 .186.139.324.324.324h8.412c.185 0 .323.139.323.324v2.126a.315.315 0 0 1-.323.324h-8.412a.316.316 0 0 0-.324.323v4.39c0 .186.139.324.324.324h8.597c.185 0 .323.14.323.324v2.126a.315.315 0 0 1-.323.324h-11.786c-.185.138-.324 0-.324-.185Zm27.223.138-3.836-6.47c-.046-.093-.185-.139-.277-.139h-2.681a.315.315 0 0 0-.323.324v6.147a.316.316 0 0 1-.324.323h-2.496a.315.315 0 0 1-.323-.323V49.81c0-.185.138-.324.323-.324h7.673c3.605 0 5.962 2.311 5.962 5.685 0 3.004-1.849 4.714-3.883 5.223-.231.046-.323.277-.231.508.74 1.202 3.051 4.9 3.929 6.24.139.23 0 .508-.277.508h-2.912c-.139 0-.231-.046-.324-.185Zm.416-12.34c0-1.756-1.294-2.866-3.096-2.866h-4.068a.315.315 0 0 0-.323.324v5.13c0 .185.138.324.323.324h4.068c1.802 0 3.096-1.11 3.096-2.912Zm24.82 12.202V49.81c0-.185.138-.324.323-.324h11.832c.185 0 .324.139.324.324v2.172a.316.316 0 0 1-.324.324h-8.643a.316.316 0 0 0-.323.323v4.067c0 .185.139.324.323.324h8.412c.185 0 .324.139.324.323v2.173a.316.316 0 0 1-.324.323h-8.412a.316.316 0 0 0-.323.324V64.6c0 .185.139.323.323.323h8.643c.185 0 .324.139.324.324v2.172a.316.316 0 0 1-.324.324H281.07c-.185-.093-.323-.231-.323-.416ZM261.521 58.5c0-5.593 4.021-9.383 9.197-9.383 3.374 0 5.547 1.71 6.841 3.79.092.139.046.37-.139.416l-2.08 1.11c-.138.092-.323.046-.37-.093-.878-1.387-2.495-2.403-4.252-2.403-3.466 0-6.054 2.727-6.054 6.563 0 3.79 2.588 6.563 6.054 6.563 1.757 0 3.374-1.017 4.252-2.404.093-.138.232-.184.37-.092l2.08 1.063c.185.093.231.277.139.462-1.341 2.08-3.513 3.837-6.841 3.837-5.176-.047-9.197-3.837-9.197-9.43Zm-41.09 8.92V53.6l-5.5 13.913c0 .046-.092.092-.139.092h-1.155c-.046 0-.139-.046-.139-.093l-5.546-13.911v13.82c0 .138-.092.23-.231.23h-2.773c-.139 0-.231-.092-.231-.23v-17.75c0-.139.092-.231.231-.231h3.975c.184 0 .323.092.416.277l4.853 12.48 4.806-12.48c.047-.185.231-.277.416-.277h3.975c.139 0 .231.092.231.231V67.42c0 .139-.092.231-.231.231h-2.773c-.092 0-.185-.092-.185-.23Z"/>
</svg>
