<svg xmlns="http://www.w3.org/2000/svg" width="300" height="100" fill="none" viewBox="0 0 300 100">
  <path fill="#000" fill-rule="evenodd" d="M49 36.405 70.968 25l22.204 11.405-22.204 11.434L49 36.405Zm131.879 5.538v-.275c0-3.753 2.208-4.957 5.926-4.69v-6.863c-8.908-.542-13.13 3.92-13.13 11.553v.275h-4.028v6.863h4.028V69.58h7.204V48.806h8.289V69.58h7.204V48.806h5.926v-6.863h-5.926v-.275c0-3.753 2.169-4.957 5.926-4.69v-6.863c-8.908-.542-13.13 3.92-13.13 11.553v.275h-8.289Zm-50.352 7.515c2.284-1.817 3.678-4.414 3.678-7.75 0-6.47-5.267-10.891-11.89-10.891h-15.378V69.5h16.617c6.778 0 12.201-4.571 12.201-11.196-.077-4-2.092-7.06-5.228-8.847Zm-8.174-11.473c2.479 0 4.184 1.825 4.184 4.265 0 2.448-1.783 4.265-4.184 4.265h-7.707v-8.53h7.707Zm1.162 24.427h-8.869v-9.114h8.869c2.635 0 4.532 1.935 4.532 4.532 0 2.637-1.897 4.582-4.532 4.582Zm34.705-20.508v14.92c0 4.808-2.633 6.862-6.158 6.862-3.254 0-5.539-1.935-5.539-5.698V41.904h-7.205v16.973c0 7.366 4.61 11.444 10.575 11.444 3.757 0 6.661-1.402 8.289-3.88v3.1h7.203V41.904h-7.165Zm73.941 16.745h-21.07c1.046 3.645 4.066 5.195 7.824 5.195 2.827 0 5.074-1.166 6.275-2.755l5.81 3.298c-2.595 3.76-6.779 5.934-12.163 5.934-9.373 0-15.299-6.359-15.299-14.613 0-8.264 5.965-14.624 14.757-14.624 8.251 0 14.138 6.478 14.138 14.624 0 1.076-.116 2.014-.272 2.941Zm-13.866-11.087c-3.872 0-6.508 2.054-7.321 5.578h14.254c-.891-3.988-3.912-5.578-6.933-5.578Zm24.557-.89v-4.768h-7.204V69.54h7.204V56.32c0-5.817 4.726-7.475 8.482-7.012v-7.947c-3.524 0-7.049 1.55-8.482 5.31ZM70.968 67.399 55.98 59.253 49 63.034l21.968 11.928 22.204-11.928-7.06-3.781-15.144 8.145ZM55.98 46.407l14.987 7.385 15.144-7.385 7.06 3.446-22.204 10.831L49 49.853l6.98-3.446Z" clip-rule="evenodd"/>
</svg>
