<svg xmlns="http://www.w3.org/2000/svg" width="34" height="34" fill="none" viewBox="0 0 34 34">
  <path fill="#fff" fill-opacity=".92" stroke="#CDA274" stroke-miterlimit="10" stroke-width="2" d="M32.001 26.075c-1.221-1.23-4.18-3.027-5.615-3.75-1.87-.942-2.023-1.02-3.493.072-.98.729-1.631 1.38-2.778 1.135-1.147-.245-3.64-1.624-5.822-3.8-2.182-2.174-3.642-4.739-3.887-5.882-.245-1.143.416-1.787 1.138-2.769 1.017-1.385.94-1.615.07-3.484-.677-1.454-2.526-4.385-3.761-5.6C6.53.69 6.53.922 5.68 1.276a12.32 12.32 0 0 0-1.987 1.06C2.462 3.152 1.779 3.831 1.3 4.852.824 5.873.61 8.266 3.076 12.748c2.467 4.481 4.198 6.773 7.78 10.345 3.582 3.572 6.337 5.493 10.364 7.751 4.982 2.79 6.893 2.246 7.917 1.77 1.023-.478 1.706-1.155 2.525-2.385.414-.628.77-1.292 1.062-1.985.354-.848.585-.848-.723-2.17Z"/>
</svg>
