<svg xmlns="http://www.w3.org/2000/svg" width="50" height="50" fill="none" viewBox="0 0 50 50">
  <path fill="#CDA274" d="M10.417 41.667v-19.05L6.385 25.72 5.13 24.07 25 8.854l19.87 15.217-1.255 1.637-4.032-3.091v19.05H10.417Zm6.25-10.896c-.43 0-.806-.16-1.125-.48a1.54 1.54 0 0 1-.48-1.124c0-.43.16-.806.48-1.125.32-.32.694-.48 1.125-.48.43 0 .805.16 1.125.48.32.32.479.694.479 1.125 0 .43-.16.805-.48 1.125-.319.32-.694.479-1.124.479Zm8.333 0c-.43 0-.806-.16-1.125-.48a1.54 1.54 0 0 1-.48-1.124c0-.43.16-.806.48-1.125.32-.32.694-.48 1.125-.48.43 0 .806.16 1.125.48.32.32.48.694.48 1.125 0 .43-.16.805-.48 1.125-.32.32-.694.479-1.125.479Zm8.333 0c-.43 0-.805-.16-1.125-.48a1.54 1.54 0 0 1-.479-1.124c0-.43.16-.806.48-1.125.319-.32.694-.48 1.124-.48.43 0 .806.16 1.125.48.32.32.48.694.48 1.125 0 .43-.16.805-.48 1.125-.32.32-.694.479-1.125.479Z"/>
</svg>
