<svg xmlns="http://www.w3.org/2000/svg" width="27" height="27" fill="none" viewBox="0 0 27 27">
  <path fill="#CDA274" d="m26.588 24.29-6.105-6.12a11.326 11.326 0 0 0 2.26-6.804C22.743 5.099 17.657 0 11.406 0 5.154 0 .068 5.099.068 11.366c0 6.267 5.086 11.366 11.338 11.366a11.26 11.26 0 0 0 6.786-2.267l6.105 6.121A1.62 1.62 0 0 0 27 25.42a1.63 1.63 0 0 0-.412-1.13ZM3.308 11.366c0-1.606.475-3.175 1.364-4.51a8.103 8.103 0 0 1 3.635-2.99 8.08 8.08 0 0 1 8.825 1.76 8.137 8.137 0 0 1 1.755 8.847 8.114 8.114 0 0 1-2.982 3.643 8.084 8.084 0 0 1-4.5 1.368 8.098 8.098 0 0 1-5.723-2.38 8.138 8.138 0 0 1-2.374-5.738Z"/>
</svg>
