<svg xmlns="http://www.w3.org/2000/svg" width="363" height="100" fill="none" viewBox="0 0 363 100">
  <path fill="#000" fill-rule="evenodd" d="M245.667 20h-30v60h28V27a2 2 0 0 1 4 0v53h28V50c0-16.569-13.432-30-30-30Zm-64 60c16.568 0 30-13.431 30-30 0-16.569-13.432-30-30-30-16.568 0-30 13.431-30 30 0 16.569 13.432 30 30 30Zm0-55a2 2 0 0 0-2 2v46a2 2 0 0 0 4 0V27a2 2 0 0 0-2-2Zm-34-4.934c-15.636 1.029-28 14.038-28 29.934v30h28V20.066Zm-32 0v59.869c-15.636-1.03-28-14.038-28-29.935 0-15.896 12.364-28.905 28-29.934Z" clip-rule="evenodd"/>
</svg>
